<svg width="637" height="160" viewBox="0 0 637 160" fill="none" xmlns="http://www.w3.org/2000/svg">
    <g id="Component 1">
        <g id="Property 1=Frame 1">
            <path id="down"
                d="M140 80C140 113.137 113.137 140 80 140C46.8629 140 20 113.137 20 80C20 46.8629 46.8629 20 80 20C113.137 20 140 46.8629 140 80ZM34.1 80C34.1 105.35 54.6501 125.9 80 125.9C105.35 125.9 125.9 105.35 125.9 80C125.9 54.6501 105.35 34.1 80 34.1C54.6501 34.1 34.1 54.6501 34.1 80Z"
                fill="white" />
            <g id="Group 1">
                <path id="up"
                    d="M81.4538 20.0176C114.581 20.8206 140.785 48.3265 139.982 81.4539C139.179 114.581 111.674 140.785 78.5462 139.982C45.4188 139.179 19.2147 111.674 20.0176 78.5462C20.8205 45.4188 48.3265 19.2147 81.4538 20.0176ZM78.8878 125.887C104.23 126.501 125.272 106.455 125.887 81.1122C126.501 55.7698 106.455 34.7277 81.1122 34.1135C55.7698 33.4993 34.7277 53.5454 34.1135 78.8878C33.4992 104.23 53.5454 125.272 78.8878 125.887Z"
                    fill="url(#paint0_angular_4_40)" />
                <path id="Ellipse 1"
                    d="M133.154 74.2863C137.019 74.38 140.076 77.589 139.982 81.4539C139.889 85.3187 136.68 88.3759 132.815 88.2822C128.95 88.1885 125.893 84.9795 125.987 81.1146C126.08 77.2498 129.289 74.1926 133.154 74.2863Z"
                    fill="#BF0505" />
            </g>
        </g>
        <g id="Property 1=Frame 2">
            <path id="down_2"
                d="M239 20C272.137 20 299 46.8629 299 80C299 113.137 272.137 140 239 140C205.863 140 179 113.137 179 80C179 46.8629 205.863 20 239 20ZM239 125.9C264.35 125.9 284.9 105.35 284.9 80C284.9 54.6501 264.35 34.1 239 34.1C213.65 34.1 193.1 54.6501 193.1 80C193.1 105.35 213.65 125.9 239 125.9Z"
                fill="white" />
            <g id="Group 1_2">
                <path id="up_2"
                    d="M179.018 78.5462C179.821 45.4188 207.326 19.2147 240.454 20.0176C273.581 20.8205 299.785 48.3265 298.982 81.4538C298.179 114.581 270.674 140.785 237.546 139.982C204.419 139.179 178.215 111.674 179.018 78.5462ZM284.887 81.1122C285.501 55.7698 265.455 34.7277 240.112 34.1135C214.77 33.4992 193.728 53.5454 193.113 78.8878C192.499 104.23 212.545 125.272 237.888 125.887C263.23 126.501 284.272 106.455 284.887 81.1122Z"
                    fill="url(#paint1_angular_4_40)" />
                <path id="Ellipse 1_2"
                    d="M233.286 26.8459C233.38 22.9811 236.589 19.9239 240.454 20.0176C244.319 20.1113 247.376 23.3203 247.282 27.1852C247.189 31.05 243.979 34.1072 240.115 34.0135C236.25 33.9198 233.193 30.7108 233.286 26.8459Z"
                    fill="#BF0505" />
            </g>
        </g>
        <g id="Property 1=Frame 3">
            <path id="down_3"
                d="M338 80C338 46.8629 364.863 20 398 20C431.137 20 458 46.8629 458 80C458 113.137 431.137 140 398 140C364.863 140 338 113.137 338 80ZM443.9 80C443.9 54.6501 423.35 34.1 398 34.1C372.65 34.1 352.1 54.6501 352.1 80C352.1 105.35 372.65 125.9 398 125.9C423.35 125.9 443.9 105.35 443.9 80Z"
                fill="white" />
            <g id="Group 1_3">
                <path id="up_3"
                    d="M396.546 139.982C363.419 139.179 337.215 111.674 338.018 78.5461C338.821 45.4188 366.326 19.2147 399.454 20.0176C432.581 20.8205 458.785 48.3265 457.982 81.4538C457.179 114.581 429.674 140.785 396.546 139.982ZM399.112 34.1135C373.77 33.4992 352.728 53.5454 352.113 78.8878C351.499 104.23 371.545 125.272 396.888 125.887C422.23 126.501 443.272 106.455 443.887 81.1122C444.501 55.7697 424.455 34.7277 399.112 34.1135Z"
                    fill="url(#paint2_angular_4_40)" />
                <path id="Ellipse 1_3"
                    d="M344.846 85.7137C340.981 85.62 337.924 82.411 338.018 78.5461C338.111 74.6813 341.32 71.6241 345.185 71.7178C349.05 71.8115 352.107 75.0205 352.013 78.8854C351.92 82.7502 348.711 85.8074 344.846 85.7137Z"
                    fill="#BF0505" />
            </g>
        </g>
        <g id="Property 1=Frame 4">
            <path id="down_4"
                d="M557 140C523.863 140 497 113.137 497 80C497 46.8629 523.863 20 557 20C590.137 20 617 46.8629 617 80C617 113.137 590.137 140 557 140ZM557 34.1C531.65 34.1 511.1 54.6501 511.1 80C511.1 105.35 531.65 125.9 557 125.9C582.35 125.9 602.9 105.35 602.9 80C602.9 54.6501 582.35 34.1 557 34.1Z"
                fill="white" />
            <g id="Group 1_4">
                <path id="up_4"
                    d="M616.982 81.4538C616.179 114.581 588.674 140.785 555.546 139.982C522.419 139.179 496.215 111.674 497.018 78.5462C497.821 45.4188 525.326 19.2147 558.454 20.0176C591.581 20.8205 617.785 48.3265 616.982 81.4538ZM511.113 78.8878C510.499 104.23 530.545 125.272 555.888 125.887C581.23 126.501 602.272 106.455 602.887 81.1122C603.501 55.7698 583.455 34.7277 558.112 34.1135C532.77 33.4992 511.728 53.5454 511.113 78.8878Z"
                    fill="url(#paint3_angular_4_40)" />
                <path id="Ellipse 1_4"
                    d="M562.714 133.154C562.62 137.019 559.411 140.076 555.546 139.982C551.681 139.889 548.624 136.68 548.718 132.815C548.812 128.95 552.021 125.893 555.885 125.987C559.75 126.08 562.807 129.289 562.714 133.154Z"
                    fill="#BF0505" />
            </g>
        </g>
        <rect x="0.5" y="0.5" width="636" height="159" rx="4.5" stroke="#9747FF" stroke-dasharray="10 5" />
    </g>
    <defs>
        <radialGradient id="paint0_angular_4_40" cx="0" cy="0" r="1" gradientUnits="userSpaceOnUse"
            gradientTransform="translate(80 80) rotate(1.38845) scale(60)">
            <stop stop-color="#BE0000" />
            <stop offset="0.0001" stop-color="#BE0500" stop-opacity="0.942708" />
            <stop offset="1" stop-color="#BE5B00" stop-opacity="0" />
        </radialGradient>
        <radialGradient id="paint1_angular_4_40" cx="0" cy="0" r="1" gradientUnits="userSpaceOnUse"
            gradientTransform="translate(239 80) rotate(-88.6116) scale(60)">
            <stop stop-color="#BE0000" />
            <stop offset="0.0001" stop-color="#BE0500" stop-opacity="0.942708" />
            <stop offset="1" stop-color="#BE5B00" stop-opacity="0" />
        </radialGradient>
        <radialGradient id="paint2_angular_4_40" cx="0" cy="0" r="1" gradientUnits="userSpaceOnUse"
            gradientTransform="translate(398 80) rotate(-178.612) scale(60)">
            <stop stop-color="#BE0000" />
            <stop offset="0.0001" stop-color="#BE0500" stop-opacity="0.942708" />
            <stop offset="1" stop-color="#BE5B00" stop-opacity="0" />
        </radialGradient>
        <radialGradient id="paint3_angular_4_40" cx="0" cy="0" r="1" gradientUnits="userSpaceOnUse"
            gradientTransform="translate(557 80) rotate(91.3884) scale(60)">
            <stop stop-color="#BE0000" />
            <stop offset="0.0001" stop-color="#BE0500" stop-opacity="0.942708" />
            <stop offset="1" stop-color="#BE5B00" stop-opacity="0" />
        </radialGradient>
    </defs>
</svg>